<?xml version="1.0" encoding="utf-8"?>
<!-- Generator: Adobe Illustrator 21.0.0, SVG Export Plug-In . SVG Version: 6.00 Build 0)  -->
<svg version="1.1" id="logo-34" xmlns="http://www.w3.org/2000/svg" xmlns:xlink="http://www.w3.org/1999/xlink" x="0px" y="0px"
	 viewBox="0 0 155 40" style="enable-background:new 0 0 155 40;" xml:space="preserve">
<style type="text/css">
	.st0{fill:#F7F5FB;}
	.st1{fill:#DE1A1A;}
</style>
<path class="st0" d="M51.6,10.3H48v16.2h9.9v-3.2h-6.3C51.6,23.3,51.6,10.3,51.6,10.3z"/>
<path class="st0" d="M58.3,21c0,3.5,2.3,5.7,5.8,5.7s5.8-2.3,5.8-5.7s-2.3-5.8-5.8-5.8S58.3,17.5,58.3,21z M61.6,20.9
	c0-1.6,1-2.7,2.4-2.7s2.4,1.1,2.4,2.7c0,1.7-1,2.8-2.4,2.8C62.6,23.7,61.6,22.6,61.6,20.9z"/>
<path class="st0" d="M70.4,20.8c0,3.3,2.1,5.5,5.2,5.5c1.5,0,2.7-0.5,3.4-1.4v1.5c0,1.5-0.9,2.5-2.6,2.5c-1.5,0-2.5-0.7-2.6-1.9
	h-3.4c0.3,3,2.6,5,5.8,5c3.7,0,6.1-2.4,6.1-6.3V15.5h-3L79,16.6c-0.6-0.9-1.9-1.5-3.4-1.5C72.6,15.2,70.4,17.4,70.4,20.8z
	 M73.8,20.7c0-1.6,1-2.6,2.4-2.6c1.6,0,2.7,1,2.7,2.6s-1.1,2.7-2.7,2.7C74.9,23.4,73.8,22.3,73.8,20.7z"/>
<path class="st0" d="M83.2,21c0,3.5,2.3,5.7,5.8,5.7s5.8-2.3,5.8-5.7s-2.3-5.8-5.8-5.8S83.2,17.5,83.2,21z M86.6,20.9
	c0-1.6,1-2.7,2.4-2.7s2.4,1.1,2.4,2.7c0,1.7-1,2.8-2.4,2.8C87.6,23.7,86.6,22.6,86.6,20.9z"/>
<path class="st0" d="M97.7,13.8c1,0,1.9-0.9,1.9-1.9c0-1.1-0.9-1.9-1.9-1.9c-1.1,0-1.9,0.8-1.9,1.9C95.8,13,96.6,13.8,97.7,13.8z
	 M96,26.4h3.4V15.5H96V26.4z"/>
<path class="st0" d="M101.4,31.7h3.3v-6.3c0.6,0.8,2.1,1.4,3.6,1.4c3.3,0,5.2-2.5,5.1-5.9c-0.1-3.5-2.1-5.6-5.2-5.6
	c-1.6,0-3,0.7-3.6,1.7l-0.2-1.3h-3.1L101.4,31.7L101.4,31.7z M104.8,21c0-1.6,1.1-2.7,2.7-2.7s2.6,1.1,2.6,2.7s-1,2.7-2.6,2.7
	C105.8,23.7,104.8,22.6,104.8,21z"/>
<path class="st0" d="M113.8,23c0.1,2.2,1.8,3.7,4.6,3.7c2.6,0,4.5-1.4,4.5-3.6c0-1.6-1-2.7-2.8-3.1l-1.9-0.5
	c-0.7-0.2-1.1-0.3-1.1-0.9s0.5-0.9,1.1-0.9c0.8,0,1.3,0.5,1.2,1.2h3c-0.1-2.3-1.8-3.7-4.2-3.7c-2.4,0-4.2,1.4-4.2,3.6
	c0,1.5,0.8,2.7,3,3.2l1.9,0.5c0.6,0.2,0.8,0.4,0.8,0.8c0,0.5-0.5,0.9-1.4,0.9c-1,0-1.5-0.5-1.5-1.2H113.8z"/>
<path class="st0" d="M128,26.7c1.3,0,2.7-0.6,3.3-1.5l0.2,1.2h3.2V15.5h-3.4v5.7c0,1.6-0.5,2.5-2,2.5c-1.2,0-2-0.5-2-2.6v-5.6H124
	v6.9C124,25,125.4,26.7,128,26.7z"/>
<path class="st0" d="M140,26.4v-6c0-1.8,1-2.4,1.9-2.4c1.1,0,1.8,0.7,1.8,2v6.3h3.3v-6c0-1.9,1-2.4,1.9-2.4c1.1,0,1.8,0.7,1.8,2v6.3
	h3.3v-7.1c0-2.5-1.3-4.1-4.1-4.1c-1.6,0-2.9,0.8-3.4,1.9c-0.7-1.2-1.8-1.9-3.6-1.9c-1.2,0-2.3,0.5-3,1.4l-0.1-1h-3.1v10.9h3.3V26.4z
	"/>
<path class="st0" d="M0,20C0,10.6,0,5.9,2.9,2.9S10.6,0,20,0s14.1,0,17.1,2.9C40,5.9,40,10.6,40,20s0,14.1-2.9,17.1
	C34.1,40,29.4,40,20,40S5.9,40,2.9,37.1C0,34.1,0,29.4,0,20z"/>
<path class="st1" d="M24,26c0.6,0,1,0.5,0.9,1c-0.2,1-0.7,1.8-1.4,2.5c-0.9,1-2.2,1.5-3.5,1.5s-2.6-0.5-3.5-1.5
	c-0.7-0.7-1.2-1.6-1.4-2.5c-0.1-0.5,0.3-1,0.9-1H24z"/>
<path class="st1" d="M26.1,17.8c-0.5,0.1-0.9,0.7-0.6,1.2s0.7,0.9,1.2,1.3c0.8,0.5,1.7,0.8,2.6,0.7c0.9-0.1,1.8-0.4,2.5-1.1
	c0.7-0.6,1.1-1.5,1.2-2.4s-0.1-1.8-0.6-2.6s-1.2-1.4-2.1-1.7s-1.8-0.3-2.7,0c-0.6,0.2-1,0.5-1.5,0.9c-0.4,0.4-0.2,1,0.3,1.3l0.5,0.3
	c0.8,0.4,0.6,1.6-0.2,1.8L26.1,17.8z"/>
<path class="st1" d="M13.9,17.8c0.5,0.1,0.9,0.7,0.6,1.2c-0.3,0.5-0.7,0.9-1.2,1.3c-0.8,0.5-1.7,0.8-2.6,0.7
	c-0.9-0.1-1.8-0.4-2.5-1.1c-0.7-0.6-1.1-1.5-1.2-2.4s0.1-1.8,0.6-2.6s1.2-1.4,2.1-1.7s1.8-0.3,2.7,0c0.6,0.2,1,0.5,1.5,0.9
	c0.4,0.4,0.2,1-0.3,1.3l-0.5,0.3c-0.8,0.4-0.6,1.6,0.2,1.8L13.9,17.8z"/>
</svg>
